<svg width="16" height="16" viewBox="0 0 16 17" fill="none" xmlns="http://www.w3.org/2000/svg">
<path d="M8 2.50003H3.33333C2.97971 2.50003 2.64057 2.6405 2.39052 2.89055C2.14048 3.1406 2 3.47974 2 3.83336V13.1667C2 13.5203 2.14048 13.8595 2.39052 14.1095C2.64057 14.3596 2.97971 14.5 3.33333 14.5H12.6667C13.0203 14.5 13.3594 14.3596 13.6095 14.1095C13.8595 13.8595 14 13.5203 14 13.1667V8.50003M12.25 2.25003C12.5152 1.98481 12.8749 1.83582 13.25 1.83582C13.6251 1.83582 13.9848 1.98481 14.25 2.25003C14.5152 2.51525 14.6642 2.87496 14.6642 3.25003C14.6642 3.6251 14.5152 3.98481 14.25 4.25003L8.24133 10.2594C8.08303 10.4175 7.88747 10.5333 7.67267 10.596L5.75733 11.156C5.69997 11.1728 5.63916 11.1738 5.58127 11.1589C5.52339 11.1441 5.47055 11.114 5.4283 11.0717C5.38604 11.0295 5.35593 10.9766 5.3411 10.9188C5.32627 10.8609 5.32727 10.8001 5.344 10.7427L5.904 8.82736C5.96702 8.61273 6.08302 8.4174 6.24133 8.25936L12.25 2.25003Z" stroke="#00ADB5" stroke-width="1.6" stroke-linecap="round" stroke-linejoin="round"/>
</svg>
